<?xml version="1.0" standalone="no"?>
<!DOCTYPE svg PUBLIC "-//W3C//DTD SVG 20010904//EN"
 "http://www.w3.org/TR/2001/REC-SVG-20010904/DTD/svg10.dtd">
<svg version="1.0" xmlns="http://www.w3.org/2000/svg"
 width="1024.000000pt" height="1024.000000pt" viewBox="0 0 1024.000000 1024.000000"
 preserveAspectRatio="xMidYMid meet">
<metadata>
Created by potrace 1.14, written by Peter Selinger 2001-2017
</metadata>
<g transform="translate(0.000000,1024.000000) scale(0.100000,-0.100000)"
fill="#000000" stroke="none">
<path d="M0 5120 l0 -5120 5120 0 5120 0 0 5120 0 5120 -5120 0 -5120 0 0
-5120z m7330 1496 c175 -26 440 -101 440 -124 0 -15 -134 -518 -140 -525 -3
-4 -36 4 -72 17 -170 64 -365 96 -598 96 -229 0 -370 -29 -535 -111 -314 -155
-488 -503 -461 -919 30 -469 282 -784 701 -876 112 -25 370 -25 478 0 l77 17
0 315 0 314 -230 0 -230 0 0 260 0 260 555 0 555 0 -2 -782 -3 -781 -68 -23
c-101 -34 -352 -90 -517 -115 -196 -31 -604 -33 -780 -5 -280 44 -497 125
-680 254 -90 63 -222 192 -290 283 -354 474 -369 1282 -33 1786 255 383 657
607 1203 673 110 13 506 4 630 -14z m-4220 -11 c0 -3 101 -357 224 -788 229
-800 311 -1108 366 -1371 17 -83 33 -152 35 -154 2 -2 6 6 9 19 125 551 154
658 484 1764 l158 530 357 3 c196 1 357 -1 357 -4 0 -4 -224 -673 -497 -1486
l-498 -1478 -394 2 -394 3 -473 1480 c-261 814 -474 1481 -474 1482 0 2 167 3
370 3 204 0 370 -2 370 -5z"/>
</g>
</svg>
